<?xml version="1.0" encoding="UTF-8" standalone="no"?>
<!DOCTYPE svg PUBLIC "-//W3C//DTD SVG 1.1//EN"
 "http://www.w3.org/Graphics/SVG/1.1/DTD/svg11.dtd">
<!-- Generated by graphviz version 2.43.0 (0)
 -->
<!-- Title: %191 Pages: 1 -->
<svg width="411pt" height="378pt"
 viewBox="0.00 0.00 411.29 378.00" xmlns="http://www.w3.org/2000/svg" xmlns:xlink="http://www.w3.org/1999/xlink">
<g id="page0,1_graph0" class="graph" transform="scale(1 1) rotate(0) translate(4 374)">
<title>%191</title>
<polygon fill="white" stroke="transparent" points="-4,4 -4,-374 407.29,-374 407.29,4 -4,4"/>
<!-- start -->
<g id="node1" class="node">
<title>start</title>
<ellipse fill="none" stroke="black" cx="145.29" cy="-352" rx="27" ry="18"/>
<text text-anchor="middle" x="145.29" y="-348.3" font-family="Times,serif" font-size="14.00">start</text>
</g>
<!-- 0 -->
<g id="node2" class="node">
<title>0</title>
<ellipse fill="none" stroke="black" cx="145.29" cy="-279" rx="27" ry="18"/>
<text text-anchor="middle" x="145.29" y="-275.3" font-family="Times,serif" font-size="14.00">0: n</text>
</g>
<!-- start&#45;&gt;0 -->
<g id="edge1" class="edge">
<title>start&#45;&gt;0</title>
<path fill="none" stroke="black" d="M145.29,-333.81C145.29,-325.79 145.29,-316.05 145.29,-307.07"/>
<polygon fill="black" stroke="black" points="148.79,-307.03 145.29,-297.03 141.79,-307.03 148.79,-307.03"/>
</g>
<!-- 1 -->
<g id="node3" class="node">
<title>1</title>
<ellipse fill="none" stroke="black" cx="79.29" cy="-192" rx="79.09" ry="18"/>
<text text-anchor="middle" x="79.29" y="-188.3" font-family="Times,serif" font-size="14.00">1: new X() // line 1</text>
</g>
<!-- 0&#45;&gt;1 -->
<g id="edge2" class="edge">
<title>0&#45;&gt;1</title>
<path fill="none" stroke="black" d="M119.16,-273.98C100.95,-269.67 77.91,-260.85 66.29,-243 61.7,-235.95 62.22,-227.34 64.73,-219.28"/>
<polygon fill="black" stroke="black" points="68.04,-220.43 68.55,-209.84 61.55,-217.8 68.04,-220.43"/>
<text text-anchor="middle" x="79.79" y="-231.8" font-family="Times,serif" font-size="14.00">alloc</text>
</g>
<!-- 2 -->
<g id="node4" class="node">
<title>2</title>
<ellipse fill="none" stroke="black" cx="231.29" cy="-192" rx="27" ry="18"/>
<text text-anchor="middle" x="231.29" y="-188.3" font-family="Times,serif" font-size="14.00">2: l</text>
</g>
<!-- 0&#45;&gt;2 -->
<g id="edge5" class="edge">
<title>0&#45;&gt;2</title>
<path fill="none" stroke="black" d="M151.99,-261.28C156.78,-250.83 164.02,-237.58 173.29,-228 181.04,-220 191,-213.12 200.47,-207.64"/>
<polygon fill="black" stroke="black" points="202.2,-210.68 209.31,-202.82 198.85,-204.53 202.2,-210.68"/>
<text text-anchor="middle" x="196.29" y="-231.8" font-family="Times,serif" font-size="14.00">assign_r</text>
</g>
<!-- 1&#45;&gt;0 -->
<g id="edge3" class="edge">
<title>1&#45;&gt;0</title>
<path fill="none" stroke="black" d="M91.4,-209.84C98.52,-219.62 107.77,-232.12 116.29,-243 119.36,-246.91 122.67,-251.01 125.92,-254.98"/>
<polygon fill="black" stroke="black" points="123.33,-257.34 132.4,-262.81 128.72,-252.88 123.33,-257.34"/>
<text text-anchor="middle" x="135.29" y="-231.8" font-family="Times,serif" font-size="14.00">alloc_r</text>
</g>
<!-- 2&#45;&gt;0 -->
<g id="edge4" class="edge">
<title>2&#45;&gt;0</title>
<path fill="none" stroke="black" d="M232.45,-210.35C232.26,-220.78 230.35,-233.79 223.29,-243 212.93,-256.53 196.16,-264.96 180.83,-270.15"/>
<polygon fill="black" stroke="black" points="179.6,-266.87 171.04,-273.11 181.62,-273.57 179.6,-266.87"/>
<text text-anchor="middle" x="246.29" y="-231.8" font-family="Times,serif" font-size="14.00">assign</text>
</g>
<!-- 3 -->
<g id="node5" class="node">
<title>3</title>
<ellipse fill="none" stroke="black" cx="85.29" cy="-105" rx="68.49" ry="18"/>
<text text-anchor="middle" x="85.29" y="-101.3" font-family="Times,serif" font-size="14.00">3: tmp1 // line 4</text>
</g>
<!-- 2&#45;&gt;3 -->
<g id="edge6" class="edge">
<title>2&#45;&gt;3</title>
<path fill="none" stroke="black" d="M206.79,-183.98C194.92,-180.71 180.43,-176.91 167.29,-174 145.03,-169.07 80.93,-173.48 66.29,-156 60.43,-148.99 61.88,-139.99 65.89,-131.55"/>
<polygon fill="black" stroke="black" points="69.01,-133.15 71.02,-122.74 62.96,-129.62 69.01,-133.15"/>
<text text-anchor="middle" x="86.29" y="-144.8" font-family="Times,serif" font-size="14.00">store_0</text>
</g>
<!-- 5 -->
<g id="node7" class="node">
<title>5</title>
<ellipse fill="none" stroke="black" cx="296.29" cy="-105" rx="68.49" ry="18"/>
<text text-anchor="middle" x="296.29" y="-101.3" font-family="Times,serif" font-size="14.00">5: tmp2 // line 5</text>
</g>
<!-- 2&#45;&gt;5 -->
<g id="edge10" class="edge">
<title>2&#45;&gt;5</title>
<path fill="none" stroke="black" d="M215.27,-176.95C205.52,-166.66 196.34,-152.53 204.29,-141 210.9,-131.42 220.49,-124.47 231.02,-119.41"/>
<polygon fill="black" stroke="black" points="232.6,-122.54 240.46,-115.44 229.89,-116.09 232.6,-122.54"/>
<text text-anchor="middle" x="221.29" y="-144.8" font-family="Times,serif" font-size="14.00">assign</text>
</g>
<!-- 2&#45;&gt;5 -->
<g id="edge13" class="edge">
<title>2&#45;&gt;5</title>
<path fill="none" stroke="black" d="M238.11,-174.36C242.71,-164.18 249.38,-151.21 257.29,-141 260.49,-136.88 264.2,-132.85 268.05,-129.08"/>
<polygon fill="black" stroke="black" points="270.54,-131.55 275.5,-122.19 265.78,-126.41 270.54,-131.55"/>
<text text-anchor="middle" x="281.79" y="-144.8" font-family="Times,serif" font-size="14.00">load_0_r</text>
</g>
<!-- 3&#45;&gt;2 -->
<g id="edge7" class="edge">
<title>3&#45;&gt;2</title>
<path fill="none" stroke="black" d="M101.97,-122.68C113.21,-133.25 128.77,-146.64 144.29,-156 160.8,-165.96 180.65,-174.19 197.22,-180.17"/>
<polygon fill="black" stroke="black" points="196.46,-183.61 207.06,-183.59 198.76,-177 196.46,-183.61"/>
<text text-anchor="middle" x="170.29" y="-144.8" font-family="Times,serif" font-size="14.00">store_0_r</text>
</g>
<!-- 4 -->
<g id="node6" class="node">
<title>4</title>
<ellipse fill="none" stroke="black" cx="85.29" cy="-18" rx="79.09" ry="18"/>
<text text-anchor="middle" x="85.29" y="-14.3" font-family="Times,serif" font-size="14.00">4: new X() // line 4</text>
</g>
<!-- 3&#45;&gt;4 -->
<g id="edge8" class="edge">
<title>3&#45;&gt;4</title>
<path fill="none" stroke="black" d="M70.83,-87.28C66.96,-81.82 63.3,-75.47 61.29,-69 58.78,-60.89 60.84,-52.44 64.63,-44.84"/>
<polygon fill="black" stroke="black" points="67.75,-46.45 69.91,-36.08 61.75,-42.83 67.75,-46.45"/>
<text text-anchor="middle" x="74.79" y="-57.8" font-family="Times,serif" font-size="14.00">alloc</text>
</g>
<!-- 4&#45;&gt;3 -->
<g id="edge9" class="edge">
<title>4&#45;&gt;3</title>
<path fill="none" stroke="black" d="M87.19,-36.12C88.04,-45.77 88.76,-58.05 88.29,-69 88.18,-71.56 88.03,-74.22 87.85,-76.88"/>
<polygon fill="black" stroke="black" points="84.35,-76.68 87.05,-86.93 91.33,-77.24 84.35,-76.68"/>
<text text-anchor="middle" x="108.29" y="-57.8" font-family="Times,serif" font-size="14.00">alloc_r</text>
</g>
<!-- 5&#45;&gt;2 -->
<g id="edge11" class="edge">
<title>5&#45;&gt;2</title>
<path fill="none" stroke="black" d="M307.53,-122.81C312.86,-133.04 316.78,-146.03 310.29,-156 300.67,-170.79 283.22,-179.37 267.16,-184.34"/>
<polygon fill="black" stroke="black" points="266.16,-180.98 257.43,-186.98 267.99,-187.74 266.16,-180.98"/>
<text text-anchor="middle" x="336.29" y="-144.8" font-family="Times,serif" font-size="14.00">assign_r</text>
</g>
<!-- 5&#45;&gt;2 -->
<g id="edge12" class="edge">
<title>5&#45;&gt;2</title>
<path fill="none" stroke="black" d="M337.37,-119.55C357.34,-128.39 374.8,-141.05 363.29,-156 351.7,-171.07 302.81,-181 267.91,-186.31"/>
<polygon fill="black" stroke="black" points="266.98,-182.91 257.59,-187.81 267.99,-189.83 266.98,-182.91"/>
<text text-anchor="middle" x="384.79" y="-144.8" font-family="Times,serif" font-size="14.00">load_0</text>
</g>
</g>
</svg>
