<?xml version="1.0" encoding="UTF-8" standalone="no"?>
<!DOCTYPE svg PUBLIC "-//W3C//DTD SVG 1.1//EN"
 "http://www.w3.org/Graphics/SVG/1.1/DTD/svg11.dtd">
<!-- Generated by graphviz version 2.43.0 (0)
 -->
<!-- Title: %393 Pages: 1 -->
<svg width="292pt" height="378pt"
 viewBox="0.00 0.00 291.54 378.00" xmlns="http://www.w3.org/2000/svg" xmlns:xlink="http://www.w3.org/1999/xlink">
<g id="page0,1_graph0" class="graph" transform="scale(1 1) rotate(0) translate(4 374)">
<title>%393</title>
<polygon fill="white" stroke="transparent" points="-4,4 -4,-374 287.54,-374 287.54,4 -4,4"/>
<!-- start -->
<g id="node1" class="node">
<title>start</title>
<ellipse fill="none" stroke="black" cx="159.99" cy="-352" rx="27" ry="18"/>
<text text-anchor="middle" x="159.99" y="-348.3" font-family="Times,serif" font-size="14.00">start</text>
</g>
<!-- 0 -->
<g id="node2" class="node">
<title>0</title>
<ellipse fill="none" stroke="black" cx="159.99" cy="-279" rx="27" ry="18"/>
<text text-anchor="middle" x="159.99" y="-275.3" font-family="Times,serif" font-size="14.00">n</text>
</g>
<!-- start&#45;&gt;0 -->
<g id="edge1" class="edge">
<title>start&#45;&gt;0</title>
<path fill="none" stroke="black" d="M159.99,-333.81C159.99,-325.79 159.99,-316.05 159.99,-307.07"/>
<polygon fill="black" stroke="black" points="163.49,-307.03 159.99,-297.03 156.49,-307.03 163.49,-307.03"/>
</g>
<!-- 1 -->
<g id="node3" class="node">
<title>1</title>
<ellipse fill="none" stroke="black" cx="93.99" cy="-192" rx="27" ry="18"/>
<text text-anchor="middle" x="93.99" y="-188.3" font-family="Times,serif" font-size="14.00">l</text>
</g>
<!-- 0&#45;&gt;1 -->
<g id="edge3" class="edge">
<title>0&#45;&gt;1</title>
<path fill="none" stroke="black" d="M133.28,-274.98C113.25,-271.17 87.13,-262.53 73.99,-243 68.57,-234.94 70.85,-225.19 75.46,-216.44"/>
<polygon fill="black" stroke="black" points="78.53,-218.13 80.9,-207.8 72.61,-214.4 78.53,-218.13"/>
<text text-anchor="middle" x="96.99" y="-231.8" font-family="Times,serif" font-size="14.00">assign_r</text>
</g>
<!-- 4 -->
<g id="node6" class="node">
<title>4</title>
<ellipse fill="none" stroke="black" cx="213.99" cy="-192" rx="69.59" ry="18"/>
<text text-anchor="middle" x="213.99" y="-188.3" font-family="Times,serif" font-size="14.00">new X() // line 1</text>
</g>
<!-- 0&#45;&gt;4 -->
<g id="edge10" class="edge">
<title>0&#45;&gt;4</title>
<path fill="none" stroke="black" d="M169.48,-261.63C175.26,-251.79 182.88,-239.07 189.99,-228 192.02,-224.84 194.2,-221.55 196.38,-218.3"/>
<polygon fill="black" stroke="black" points="199.33,-220.19 202.07,-209.95 193.54,-216.25 199.33,-220.19"/>
<text text-anchor="middle" x="203.49" y="-231.8" font-family="Times,serif" font-size="14.00">alloc</text>
</g>
<!-- 1&#45;&gt;0 -->
<g id="edge2" class="edge">
<title>1&#45;&gt;0</title>
<path fill="none" stroke="black" d="M105.91,-208.35C115.93,-221.25 130.4,-239.89 141.86,-254.64"/>
<polygon fill="black" stroke="black" points="139.3,-257.05 148.19,-262.8 144.83,-252.76 139.3,-257.05"/>
<text text-anchor="middle" x="147.99" y="-231.8" font-family="Times,serif" font-size="14.00">assign</text>
</g>
<!-- 2 -->
<g id="node4" class="node">
<title>2</title>
<ellipse fill="none" stroke="black" cx="93.99" cy="-105" rx="27" ry="18"/>
<text text-anchor="middle" x="93.99" y="-101.3" font-family="Times,serif" font-size="14.00">t</text>
</g>
<!-- 1&#45;&gt;2 -->
<g id="edge4" class="edge">
<title>1&#45;&gt;2</title>
<path fill="none" stroke="black" d="M67.36,-188.57C46.27,-185.09 18.1,-176.62 3.99,-156 -12.03,-132.57 26.46,-118.97 58,-112.02"/>
<polygon fill="black" stroke="black" points="58.82,-115.42 67.92,-109.99 57.42,-108.56 58.82,-115.42"/>
<text text-anchor="middle" x="23.99" y="-144.8" font-family="Times,serif" font-size="14.00">store_0</text>
</g>
<!-- 1&#45;&gt;2 -->
<g id="edge6" class="edge">
<title>1&#45;&gt;2</title>
<path fill="none" stroke="black" d="M77.68,-177.32C71.88,-171.43 66.04,-164.05 62.99,-156 59.21,-146.01 63.69,-135.84 70.31,-127.3"/>
<polygon fill="black" stroke="black" points="73.07,-129.47 77.12,-119.68 67.85,-124.8 73.07,-129.47"/>
<text text-anchor="middle" x="79.99" y="-144.8" font-family="Times,serif" font-size="14.00">assign</text>
</g>
<!-- 2&#45;&gt;1 -->
<g id="edge5" class="edge">
<title>2&#45;&gt;1</title>
<path fill="none" stroke="black" d="M98.09,-122.99C99.28,-128.68 100.41,-135.08 100.99,-141 101.73,-148.47 101.2,-156.54 100.15,-163.97"/>
<polygon fill="black" stroke="black" points="96.69,-163.46 98.42,-173.92 103.58,-164.67 96.69,-163.46"/>
<text text-anchor="middle" x="127.99" y="-144.8" font-family="Times,serif" font-size="14.00">store_0_r</text>
</g>
<!-- 2&#45;&gt;1 -->
<g id="edge7" class="edge">
<title>2&#45;&gt;1</title>
<path fill="none" stroke="black" d="M118.26,-113.33C140.92,-121.55 169.64,-136.35 157.99,-156 154.1,-162.57 139.67,-170.71 125.5,-177.49"/>
<polygon fill="black" stroke="black" points="123.95,-174.35 116.34,-181.72 126.89,-180.71 123.95,-174.35"/>
<text text-anchor="middle" x="183.99" y="-144.8" font-family="Times,serif" font-size="14.00">assign_r</text>
</g>
<!-- 3 -->
<g id="node5" class="node">
<title>3</title>
<ellipse fill="none" stroke="black" cx="93.99" cy="-18" rx="69.59" ry="18"/>
<text text-anchor="middle" x="93.99" y="-14.3" font-family="Times,serif" font-size="14.00">new X() // line 4</text>
</g>
<!-- 2&#45;&gt;3 -->
<g id="edge8" class="edge">
<title>2&#45;&gt;3</title>
<path fill="none" stroke="black" d="M80.8,-89.03C76.48,-83.19 72.22,-76.18 69.99,-69 67.41,-60.67 69.66,-51.98 73.65,-44.22"/>
<polygon fill="black" stroke="black" points="76.68,-45.97 78.93,-35.62 70.71,-42.3 76.68,-45.97"/>
<text text-anchor="middle" x="83.49" y="-57.8" font-family="Times,serif" font-size="14.00">alloc</text>
</g>
<!-- 3&#45;&gt;2 -->
<g id="edge9" class="edge">
<title>3&#45;&gt;2</title>
<path fill="none" stroke="black" d="M95.89,-36.12C96.74,-45.77 97.46,-58.05 96.99,-69 96.88,-71.56 96.73,-74.22 96.55,-76.88"/>
<polygon fill="black" stroke="black" points="93.05,-76.68 95.75,-86.93 100.03,-77.24 93.05,-76.68"/>
<text text-anchor="middle" x="116.99" y="-57.8" font-family="Times,serif" font-size="14.00">alloc_r</text>
</g>
<!-- 4&#45;&gt;0 -->
<g id="edge11" class="edge">
<title>4&#45;&gt;0</title>
<path fill="none" stroke="black" d="M219.47,-210.24C221.65,-220.39 222.51,-233.13 216.99,-243 211.58,-252.68 202.28,-260 192.74,-265.39"/>
<polygon fill="black" stroke="black" points="190.99,-262.35 183.64,-269.97 194.14,-268.6 190.99,-262.35"/>
<text text-anchor="middle" x="238.99" y="-231.8" font-family="Times,serif" font-size="14.00">alloc_r</text>
</g>
</g>
</svg>
