<?xml version="1.0" encoding="UTF-8" standalone="no"?>
<!DOCTYPE svg PUBLIC "-//W3C//DTD SVG 1.1//EN"
 "http://www.w3.org/Graphics/SVG/1.1/DTD/svg11.dtd">
<!-- Generated by graphviz version 2.43.0 (0)
 -->
<!-- Title: %503 Pages: 1 -->
<svg width="513pt" height="552pt"
 viewBox="0.00 0.00 513.30 552.00" xmlns="http://www.w3.org/2000/svg" xmlns:xlink="http://www.w3.org/1999/xlink">
<g id="page0,1_graph0" class="graph" transform="scale(1 1) rotate(0) translate(4 548)">
<title>%503</title>
<polygon fill="white" stroke="transparent" points="-4,4 -4,-548 509.3,-548 509.3,4 -4,4"/>
<!-- start -->
<g id="node1" class="node">
<title>start</title>
<ellipse fill="none" stroke="black" cx="359.3" cy="-526" rx="27" ry="18"/>
<text text-anchor="middle" x="359.3" y="-522.3" font-family="Times,serif" font-size="14.00">start</text>
</g>
<!-- 1 -->
<g id="node2" class="node">
<title>1</title>
<ellipse fill="none" stroke="black" cx="213.3" cy="-453" rx="27" ry="18"/>
<text text-anchor="middle" x="213.3" y="-449.3" font-family="Times,serif" font-size="14.00">n</text>
</g>
<!-- start&#45;&gt;1 -->
<g id="edge1" class="edge">
<title>start&#45;&gt;1</title>
<path fill="none" stroke="black" d="M338.07,-514.68C313.2,-502.58 271.81,-482.46 243.58,-468.73"/>
<polygon fill="black" stroke="black" points="245.08,-465.56 234.55,-464.34 242.01,-471.86 245.08,-465.56"/>
</g>
<!-- 8 -->
<g id="node3" class="node">
<title>8</title>
<ellipse fill="none" stroke="black" cx="253.3" cy="-192" rx="27" ry="18"/>
<text text-anchor="middle" x="253.3" y="-188.3" font-family="Times,serif" font-size="14.00">v</text>
</g>
<!-- start&#45;&gt;8 -->
<g id="edge2" class="edge">
<title>start&#45;&gt;8</title>
<path fill="none" stroke="black" d="M386.42,-523.71C428.64,-520.08 505.3,-506.28 505.3,-454 505.3,-454 505.3,-454 505.3,-278 505.3,-248.98 488.5,-242.39 463.3,-228 459.53,-225.85 348.36,-208.03 289.33,-198.68"/>
<polygon fill="black" stroke="black" points="289.72,-195.2 279.3,-197.09 288.63,-202.11 289.72,-195.2"/>
</g>
<!-- 0 -->
<g id="node4" class="node">
<title>0</title>
<ellipse fill="none" stroke="black" cx="40.3" cy="-366" rx="40.09" ry="18"/>
<text text-anchor="middle" x="40.3" y="-362.3" font-family="Times,serif" font-size="14.00">new X()</text>
</g>
<!-- 1&#45;&gt;0 -->
<g id="edge3" class="edge">
<title>1&#45;&gt;0</title>
<path fill="none" stroke="black" d="M187.47,-447.05C163.79,-441.82 128.27,-432.19 100.3,-417 87,-409.78 73.9,-399.36 63.35,-389.89"/>
<polygon fill="black" stroke="black" points="65.53,-387.14 55.81,-382.91 60.77,-392.28 65.53,-387.14"/>
<text text-anchor="middle" x="113.8" y="-405.8" font-family="Times,serif" font-size="14.00">alloc</text>
</g>
<!-- 4 -->
<g id="node5" class="node">
<title>4</title>
<ellipse fill="none" stroke="black" cx="138.3" cy="-366" rx="27" ry="18"/>
<text text-anchor="middle" x="138.3" y="-362.3" font-family="Times,serif" font-size="14.00">z</text>
</g>
<!-- 1&#45;&gt;4 -->
<g id="edge18" class="edge">
<title>1&#45;&gt;4</title>
<path fill="none" stroke="black" d="M187.1,-447.79C169.18,-443.4 146.67,-434.57 135.3,-417 130.96,-410.3 130.12,-401.98 130.82,-394.06"/>
<polygon fill="black" stroke="black" points="134.3,-394.48 132.48,-384.05 127.39,-393.34 134.3,-394.48"/>
<text text-anchor="middle" x="161.3" y="-405.8" font-family="Times,serif" font-size="14.00">store_0_r</text>
</g>
<!-- 5 -->
<g id="node7" class="node">
<title>5</title>
<ellipse fill="none" stroke="black" cx="335.3" cy="-366" rx="27" ry="18"/>
<text text-anchor="middle" x="335.3" y="-362.3" font-family="Times,serif" font-size="14.00">u</text>
</g>
<!-- 1&#45;&gt;5 -->
<g id="edge20" class="edge">
<title>1&#45;&gt;5</title>
<path fill="none" stroke="black" d="M240.14,-449.47C263.39,-445.91 296.47,-437.39 317.3,-417 323.58,-410.85 327.67,-402.35 330.35,-394.11"/>
<polygon fill="black" stroke="black" points="333.75,-394.91 332.95,-384.35 326.99,-393.11 333.75,-394.91"/>
<text text-anchor="middle" x="353.3" y="-405.8" font-family="Times,serif" font-size="14.00">store_1_r</text>
</g>
<!-- 10 -->
<g id="node9" class="node">
<title>10</title>
<ellipse fill="none" stroke="black" cx="269.3" cy="-105" rx="59.29" ry="18"/>
<text text-anchor="middle" x="269.3" y="-101.3" font-family="Times,serif" font-size="14.00">tmp3 // line 7</text>
</g>
<!-- 8&#45;&gt;10 -->
<g id="edge21" class="edge">
<title>8&#45;&gt;10</title>
<path fill="none" stroke="black" d="M239.38,-176.16C231.82,-166.24 225,-152.87 230.3,-141 232.28,-136.56 235.13,-132.45 238.41,-128.72"/>
<polygon fill="black" stroke="black" points="240.93,-131.15 245.58,-121.63 236,-126.17 240.93,-131.15"/>
<text text-anchor="middle" x="250.3" y="-144.8" font-family="Times,serif" font-size="14.00">store_2</text>
</g>
<!-- 6 -->
<g id="node13" class="node">
<title>6</title>
<ellipse fill="none" stroke="black" cx="184.3" cy="-279" rx="59.29" ry="18"/>
<text text-anchor="middle" x="184.3" y="-275.3" font-family="Times,serif" font-size="14.00">tmp1 // line 6</text>
</g>
<!-- 8&#45;&gt;6 -->
<g id="edge13" class="edge">
<title>8&#45;&gt;6</title>
<path fill="none" stroke="black" d="M248.3,-209.94C244.7,-220.22 239.1,-233.21 231.3,-243 227.48,-247.79 222.86,-252.27 218.02,-256.31"/>
<polygon fill="black" stroke="black" points="215.55,-253.79 209.78,-262.68 219.83,-259.33 215.55,-253.79"/>
<text text-anchor="middle" x="257.3" y="-231.8" font-family="Times,serif" font-size="14.00">assign</text>
</g>
<!-- 0&#45;&gt;1 -->
<g id="edge4" class="edge">
<title>0&#45;&gt;1</title>
<path fill="none" stroke="black" d="M33.86,-384.11C31.07,-394.72 29.9,-407.99 37.3,-417 54.52,-437.99 129.89,-446.62 176.24,-449.99"/>
<polygon fill="black" stroke="black" points="176,-453.49 186.22,-450.67 176.48,-446.5 176,-453.49"/>
<text text-anchor="middle" x="56.3" y="-405.8" font-family="Times,serif" font-size="14.00">alloc_r</text>
</g>
<!-- 4&#45;&gt;1 -->
<g id="edge17" class="edge">
<title>4&#45;&gt;1</title>
<path fill="none" stroke="black" d="M159.53,-377.28C170.18,-383.29 182.62,-391.72 191.3,-402 197.04,-408.8 201.52,-417.34 204.91,-425.42"/>
<polygon fill="black" stroke="black" points="201.68,-426.79 208.49,-434.91 208.23,-424.31 201.68,-426.79"/>
<text text-anchor="middle" x="221.3" y="-405.8" font-family="Times,serif" font-size="14.00">store_0</text>
</g>
<!-- 2 -->
<g id="node6" class="node">
<title>2</title>
<ellipse fill="none" stroke="black" cx="48.3" cy="-279" rx="38.99" ry="18"/>
<text text-anchor="middle" x="48.3" y="-275.3" font-family="Times,serif" font-size="14.00">new Z()</text>
</g>
<!-- 4&#45;&gt;2 -->
<g id="edge5" class="edge">
<title>4&#45;&gt;2</title>
<path fill="none" stroke="black" d="M123.43,-350.96C109.53,-337.83 88.53,-318 72.26,-302.63"/>
<polygon fill="black" stroke="black" points="74.38,-299.82 64.71,-295.5 69.57,-304.91 74.38,-299.82"/>
<text text-anchor="middle" x="112.8" y="-318.8" font-family="Times,serif" font-size="14.00">alloc</text>
</g>
<!-- 4&#45;&gt;6 -->
<g id="edge26" class="edge">
<title>4&#45;&gt;6</title>
<path fill="none" stroke="black" d="M133.07,-347.89C130.98,-337.79 130.12,-325.05 135.3,-315 138.02,-309.7 141.97,-305.02 146.45,-300.96"/>
<polygon fill="black" stroke="black" points="148.71,-303.64 154.38,-294.69 144.37,-298.14 148.71,-303.64"/>
<text text-anchor="middle" x="159.8" y="-318.8" font-family="Times,serif" font-size="14.00">load_0_r</text>
</g>
<!-- 2&#45;&gt;4 -->
<g id="edge6" class="edge">
<title>2&#45;&gt;4</title>
<path fill="none" stroke="black" d="M42.76,-297.18C40.52,-307.56 39.79,-320.56 46.3,-330 48.12,-332.65 79.7,-344.32 105.35,-353.46"/>
<polygon fill="black" stroke="black" points="104.23,-356.77 114.82,-356.82 106.57,-350.18 104.23,-356.77"/>
<text text-anchor="middle" x="65.3" y="-318.8" font-family="Times,serif" font-size="14.00">alloc_r</text>
</g>
<!-- 5&#45;&gt;1 -->
<g id="edge19" class="edge">
<title>5&#45;&gt;1</title>
<path fill="none" stroke="black" d="M315.33,-378.25C303.97,-384.85 289.6,-393.53 277.3,-402 263.75,-411.33 249.25,-422.54 237.49,-431.98"/>
<polygon fill="black" stroke="black" points="235.03,-429.48 229.46,-438.49 239.43,-434.91 235.03,-429.48"/>
<text text-anchor="middle" x="297.3" y="-405.8" font-family="Times,serif" font-size="14.00">store_1</text>
</g>
<!-- 3 -->
<g id="node8" class="node">
<title>3</title>
<ellipse fill="none" stroke="black" cx="301.3" cy="-279" rx="40.09" ry="18"/>
<text text-anchor="middle" x="301.3" y="-275.3" font-family="Times,serif" font-size="14.00">new U()</text>
</g>
<!-- 5&#45;&gt;3 -->
<g id="edge7" class="edge">
<title>5&#45;&gt;3</title>
<path fill="none" stroke="black" d="M328.58,-348.21C323.78,-336.22 317.24,-319.85 311.76,-306.16"/>
<polygon fill="black" stroke="black" points="314.96,-304.74 308,-296.76 308.46,-307.34 314.96,-304.74"/>
<text text-anchor="middle" x="334.8" y="-318.8" font-family="Times,serif" font-size="14.00">alloc</text>
</g>
<!-- 7 -->
<g id="node15" class="node">
<title>7</title>
<ellipse fill="none" stroke="black" cx="418.3" cy="-279" rx="59.29" ry="18"/>
<text text-anchor="middle" x="418.3" y="-275.3" font-family="Times,serif" font-size="14.00">tmp2 // line 8</text>
</g>
<!-- 5&#45;&gt;7 -->
<g id="edge28" class="edge">
<title>5&#45;&gt;7</title>
<path fill="none" stroke="black" d="M361.81,-361.72C381.33,-357.76 406.59,-349.06 419.3,-330 423.72,-323.37 424.84,-315.07 424.46,-307.14"/>
<polygon fill="black" stroke="black" points="427.92,-306.62 423.25,-297.12 420.97,-307.46 427.92,-306.62"/>
<text text-anchor="middle" x="448.8" y="-318.8" font-family="Times,serif" font-size="14.00">load_1_r</text>
</g>
<!-- 3&#45;&gt;5 -->
<g id="edge8" class="edge">
<title>3&#45;&gt;5</title>
<path fill="none" stroke="black" d="M284.23,-295.45C275.38,-305.4 267.67,-318.56 274.3,-330 280.4,-340.54 291.01,-348.18 301.69,-353.58"/>
<polygon fill="black" stroke="black" points="300.43,-356.85 310.98,-357.77 303.3,-350.47 300.43,-356.85"/>
<text text-anchor="middle" x="293.3" y="-318.8" font-family="Times,serif" font-size="14.00">alloc_r</text>
</g>
<!-- 10&#45;&gt;8 -->
<g id="edge22" class="edge">
<title>10&#45;&gt;8</title>
<path fill="none" stroke="black" d="M271.71,-123.34C272.54,-133.06 272.75,-145.34 270.3,-156 269.55,-159.23 268.47,-162.5 267.21,-165.68"/>
<polygon fill="black" stroke="black" points="264,-164.28 263.03,-174.83 270.37,-167.19 264,-164.28"/>
<text text-anchor="middle" x="298.3" y="-144.8" font-family="Times,serif" font-size="14.00">store_2_r</text>
</g>
<!-- 12 -->
<g id="node10" class="node">
<title>12</title>
<ellipse fill="none" stroke="black" cx="295.3" cy="-18" rx="39.79" ry="18"/>
<text text-anchor="middle" x="295.3" y="-14.3" font-family="Times,serif" font-size="14.00">new Y()</text>
</g>
<!-- 10&#45;&gt;12 -->
<g id="edge9" class="edge">
<title>10&#45;&gt;12</title>
<path fill="none" stroke="black" d="M260.42,-86.84C256.55,-76.95 253.8,-64.45 258.3,-54 260.38,-49.15 263.51,-44.66 267.08,-40.62"/>
<polygon fill="black" stroke="black" points="269.68,-42.97 274.33,-33.44 264.76,-37.99 269.68,-42.97"/>
<text text-anchor="middle" x="271.8" y="-57.8" font-family="Times,serif" font-size="14.00">alloc</text>
</g>
<!-- 12&#45;&gt;10 -->
<g id="edge10" class="edge">
<title>12&#45;&gt;10</title>
<path fill="none" stroke="black" d="M292.84,-36.38C291.21,-46.11 288.73,-58.39 285.3,-69 284.39,-71.8 283.32,-74.67 282.17,-77.51"/>
<polygon fill="black" stroke="black" points="278.88,-76.3 278.09,-86.87 285.3,-79.11 278.88,-76.3"/>
<text text-anchor="middle" x="309.3" y="-57.8" font-family="Times,serif" font-size="14.00">alloc_r</text>
</g>
<!-- 11 -->
<g id="node11" class="node">
<title>11</title>
<ellipse fill="none" stroke="black" cx="406.3" cy="-105" rx="59.29" ry="18"/>
<text text-anchor="middle" x="406.3" y="-101.3" font-family="Times,serif" font-size="14.00">tmp4 // line 9</text>
</g>
<!-- 13 -->
<g id="node12" class="node">
<title>13</title>
<ellipse fill="none" stroke="black" cx="398.3" cy="-18" rx="38.19" ry="18"/>
<text text-anchor="middle" x="398.3" y="-14.3" font-family="Times,serif" font-size="14.00">new P()</text>
</g>
<!-- 11&#45;&gt;13 -->
<g id="edge11" class="edge">
<title>11&#45;&gt;13</title>
<path fill="none" stroke="black" d="M395.02,-87.26C391.88,-81.69 388.9,-75.3 387.3,-69 385.37,-61.42 386.07,-53.14 387.82,-45.54"/>
<polygon fill="black" stroke="black" points="391.24,-46.31 390.7,-35.73 384.52,-44.34 391.24,-46.31"/>
<text text-anchor="middle" x="400.8" y="-57.8" font-family="Times,serif" font-size="14.00">alloc</text>
</g>
<!-- 9 -->
<g id="node14" class="node">
<title>9</title>
<ellipse fill="none" stroke="black" cx="398.3" cy="-192" rx="27" ry="18"/>
<text text-anchor="middle" x="398.3" y="-188.3" font-family="Times,serif" font-size="14.00">r</text>
</g>
<!-- 11&#45;&gt;9 -->
<g id="edge24" class="edge">
<title>11&#45;&gt;9</title>
<path fill="none" stroke="black" d="M418.33,-123.05C423.64,-132.68 427.95,-144.96 424.3,-156 422.91,-160.2 420.79,-164.31 418.36,-168.15"/>
<polygon fill="black" stroke="black" points="415.32,-166.39 412.3,-176.54 420.99,-170.49 415.32,-166.39"/>
<text text-anchor="middle" x="452.3" y="-144.8" font-family="Times,serif" font-size="14.00">store_3_r</text>
</g>
<!-- 13&#45;&gt;11 -->
<g id="edge12" class="edge">
<title>13&#45;&gt;11</title>
<path fill="none" stroke="black" d="M407.63,-35.58C410.34,-41.24 412.93,-47.73 414.3,-54 415.9,-61.36 415.53,-69.39 414.34,-76.82"/>
<polygon fill="black" stroke="black" points="410.87,-76.28 412.21,-86.79 417.72,-77.74 410.87,-76.28"/>
<text text-anchor="middle" x="435.3" y="-57.8" font-family="Times,serif" font-size="14.00">alloc_r</text>
</g>
<!-- 6&#45;&gt;8 -->
<g id="edge14" class="edge">
<title>6&#45;&gt;8</title>
<path fill="none" stroke="black" d="M178.58,-261.02C176.2,-250.72 175.21,-237.73 181.3,-228 189.42,-215.01 203.9,-206.72 217.76,-201.49"/>
<polygon fill="black" stroke="black" points="219.25,-204.68 227.63,-198.19 217.04,-198.04 219.25,-204.68"/>
<text text-anchor="middle" x="204.3" y="-231.8" font-family="Times,serif" font-size="14.00">assign_r</text>
</g>
<!-- 6&#45;&gt;4 -->
<g id="edge25" class="edge">
<title>6&#45;&gt;4</title>
<path fill="none" stroke="black" d="M190.05,-297.12C192.41,-307.22 193.52,-319.96 188.3,-330 184.04,-338.17 176.91,-344.83 169.34,-350.06"/>
<polygon fill="black" stroke="black" points="167.09,-347.34 160.41,-355.55 170.76,-353.3 167.09,-347.34"/>
<text text-anchor="middle" x="210.8" y="-318.8" font-family="Times,serif" font-size="14.00">load_0</text>
</g>
<!-- 9&#45;&gt;11 -->
<g id="edge23" class="edge">
<title>9&#45;&gt;11</title>
<path fill="none" stroke="black" d="M389.1,-174.77C384.71,-164.98 381.05,-152.26 384.3,-141 385.21,-137.83 386.51,-134.67 388.02,-131.61"/>
<polygon fill="black" stroke="black" points="391.09,-133.29 393.03,-122.88 385.02,-129.81 391.09,-133.29"/>
<text text-anchor="middle" x="404.3" y="-144.8" font-family="Times,serif" font-size="14.00">store_3</text>
</g>
<!-- 9&#45;&gt;7 -->
<g id="edge15" class="edge">
<title>9&#45;&gt;7</title>
<path fill="none" stroke="black" d="M384.53,-207.49C376.76,-217.49 369.63,-231.09 375.3,-243 377.56,-247.77 380.83,-252.1 384.57,-255.96"/>
<polygon fill="black" stroke="black" points="382.42,-258.73 392.2,-262.81 387.09,-253.52 382.42,-258.73"/>
<text text-anchor="middle" x="392.3" y="-231.8" font-family="Times,serif" font-size="14.00">assign</text>
</g>
<!-- 7&#45;&gt;5 -->
<g id="edge27" class="edge">
<title>7&#45;&gt;5</title>
<path fill="none" stroke="black" d="M400.93,-296.58C394.97,-302.35 388.29,-308.91 382.3,-315 373.6,-323.85 364.2,-333.77 356.11,-342.43"/>
<polygon fill="black" stroke="black" points="353.36,-340.25 349.11,-349.96 358.48,-345.02 353.36,-340.25"/>
<text text-anchor="middle" x="400.8" y="-318.8" font-family="Times,serif" font-size="14.00">load_1</text>
</g>
<!-- 7&#45;&gt;9 -->
<g id="edge16" class="edge">
<title>7&#45;&gt;9</title>
<path fill="none" stroke="black" d="M415.75,-260.76C414.17,-251.07 411.95,-238.79 409.3,-228 408.6,-225.16 407.79,-222.21 406.95,-219.28"/>
<polygon fill="black" stroke="black" points="410.26,-218.15 403.99,-209.61 403.57,-220.2 410.26,-218.15"/>
<text text-anchor="middle" x="436.3" y="-231.8" font-family="Times,serif" font-size="14.00">assign_r</text>
</g>
</g>
</svg>
